<svg width="24" height="24" viewBox="0 0 24 24" fill="none" xmlns="http://www.w3.org/2000/svg">
  <path d="M16.96 6.17004C18.96 7.56004 20.34 9.77004 20.62 12.32" stroke="currentColor" stroke-width="1.5" stroke-linecap="round" stroke-linejoin="round"/>
  <path d="M3.49023 12.37C3.75023 9.83001 5.11023 7.62001 7.09023 6.22001" stroke="currentColor" stroke-width="1.5" stroke-linecap="round" stroke-linejoin="round"/>
  <path d="M8.19043 20.94C9.35043 21.53 10.6704 21.86 12.0604 21.86C13.4004 21.86 14.6604 21.56 15.7904 21" stroke="currentColor" stroke-width="1.5" stroke-linecap="round" stroke-linejoin="round"/>
  <path d="M12.0603 7.70001C13.5959 7.70001 14.8403 6.45565 14.8403 4.92001C14.8403 3.38437 13.5959 2.14001 12.0603 2.14001C10.5246 2.14001 9.28027 3.38437 9.28027 4.92001C9.28027 6.45565 10.5246 7.70001 12.0603 7.70001Z" stroke="currentColor" stroke-width="1.5" stroke-linecap="round" stroke-linejoin="round"/>
  <path d="M4.83022 19.92C6.36586 19.92 7.61022 18.6757 7.61022 17.14C7.61022 15.6044 6.36586 14.36 4.83022 14.36C3.29458 14.36 2.05022 15.6044 2.05022 17.14C2.05022 18.6757 3.29458 19.92 4.83022 19.92Z" stroke="currentColor" stroke-width="1.5" stroke-linecap="round" stroke-linejoin="round"/>
  <path d="M19.1704 19.92C20.706 19.92 21.9504 18.6757 21.9504 17.14C21.9504 15.6044 20.706 14.36 19.1704 14.36C17.6347 14.36 16.3904 15.6044 16.3904 17.14C16.3904 18.6757 17.6347 19.92 19.1704 19.92Z" stroke="currentColor" stroke-width="1.5" stroke-linecap="round" stroke-linejoin="round"/>
</svg> 